<svg width="1920" height="1531" viewBox="0 0 1920 1531" fill="none" xmlns="http://www.w3.org/2000/svg">
<g clip-path="url(#clip0)">
<path d="M-677.247 -626.958C-677.247 -626.958 1741.02 -856.288 1378.08 1150.49" stroke="#281571" stroke-width="4" stroke-miterlimit="10"/>
<path d="M-911.024 84.866C-911.024 84.866 1448.31 -519.075 1344.28 1529.17" stroke="#281571" stroke-width="4" stroke-miterlimit="10"/>
<path d="M-888.702 13.2788C-888.702 13.2788 1480.42 -545.165 1344.39 1500.16" stroke="#281571" stroke-width="4" stroke-miterlimit="10"/>
<path d="M-867.027 -55.2265C-867.027 -55.2265 1510.12 -573.485 1345.95 1468.77" stroke="#281571" stroke-width="4" stroke-miterlimit="10"/>
<path d="M-845.037 -123.62C-845.037 -123.62 1539.6 -601.503 1347.29 1437.2" stroke="#281571" stroke-width="4" stroke-miterlimit="10"/>
<path d="M-822.773 -191.836C-822.773 -191.836 1568.78 -629.337 1348.42 1405.36" stroke="#281571" stroke-width="4" stroke-miterlimit="10"/>
<path d="M-801.903 -255.63C-801.903 -255.63 1594.76 -660.859 1352.11 1370.29" stroke="#281571" stroke-width="4" stroke-miterlimit="10"/>
<path d="M-780.208 -320.889C-780.208 -320.889 1621.66 -690.775 1354.64 1336.17" stroke="#281571" stroke-width="4" stroke-miterlimit="10"/>
<path d="M-759.492 -383.209C-759.492 -383.209 1646.43 -723.198 1358.9 1299.91" stroke="#281571" stroke-width="4" stroke-miterlimit="10"/>
<path d="M-737.993 -446.879C-737.993 -446.879 1672.03 -754.104 1362.06 1264.51" stroke="#281571" stroke-width="4" stroke-miterlimit="10"/>
<path d="M-718.224 -506.164C-718.224 -506.164 1694.59 -789.049 1368.03 1226.05" stroke="#281571" stroke-width="4" stroke-miterlimit="10"/>
<path d="M-697.251 -567.794C-697.251 -567.794 1718.65 -821.536 1372.27 1189.13" stroke="#281571" stroke-width="4" stroke-miterlimit="10"/>
<path d="M2512.75 170.966C2512.75 170.966 1311.31 2282.17 -122.837 832.313" stroke="#281571" stroke-width="4" stroke-miterlimit="10"/>
<path d="M2064.38 -429.291C2064.38 -429.291 1203.44 1848.86 -413.389 587.12" stroke="#281571" stroke-width="4" stroke-miterlimit="10"/>
<path d="M2110.15 -369.897C2110.15 -369.897 1206.35 1890.13 -389.706 603.868" stroke="#281571" stroke-width="4" stroke-miterlimit="10"/>
<path d="M2153.77 -312.804C2153.77 -312.804 1212.46 1930.71 -364.908 623.176" stroke="#281571" stroke-width="4" stroke-miterlimit="10"/>
<path d="M2197.13 -255.515C2197.13 -255.515 1218.47 1970.94 -339.831 642.41" stroke="#281571" stroke-width="4" stroke-miterlimit="10"/>
<path d="M2240.18 -198.105C2240.18 -198.105 1224.49 2010.81 -314.424 661.63" stroke="#281571" stroke-width="4" stroke-miterlimit="10"/>
<path d="M2280.4 -144.377C2280.4 -144.377 1235.36 2050.19 -287.833 684.789" stroke="#281571" stroke-width="4" stroke-miterlimit="10"/>
<path d="M2321.36 -89.1311C2321.36 -89.1311 1244.4 2089.38 -261.361 706.466" stroke="#281571" stroke-width="4" stroke-miterlimit="10"/>
<path d="M2360.47 -36.3746C2360.47 -36.3746 1256.71 2128.29 -234.125 730.777" stroke="#281571" stroke-width="4" stroke-miterlimit="10"/>
<path d="M2400.24 17.7982C2400.24 17.7982 1267.31 2166.99 -206.973 753.7" stroke="#281571" stroke-width="4" stroke-miterlimit="10"/>
<path d="M2437.41 68.0355C2437.41 68.0355 1282.95 2205.54 -178.916 780.68" stroke="#281571" stroke-width="4" stroke-miterlimit="10"/>
<path d="M2475.81 120.606C2475.81 120.606 1295.72 2243.9 -151.129 805.355" stroke="#281571" stroke-width="4" stroke-miterlimit="10"/>
</g>
<defs>
<clipPath id="clip0">
<rect width="2922" height="2002" fill="white" transform="translate(-949.593 -464.565) rotate(-4.79707)"/>
</clipPath>
</defs>
</svg>
